# xmcd CD database file
# Copyright (C) 1993-1998 Ti Kan
# 
# Track frame offsets:
#     150
#     14257
#     38462
#     69202
#     81095
#     92632
#     110087
#     122670
#     143662
#     173400
#     192082
#     218992
#     236752
#     265302
# 
# Disc length: 3879 seconds
# 
# Revision: 1
# Processed by: cddbd v1.4b41PL1 Copyright (c) Steve Scherf et al.
# Submitted via: DiscPlay 4.0.4
# 
DISCID=b30f250e
DTITLE=Big Bo and Mr. Bas - Come natural
DYEAR=1900
DGENRE=
TTITLE0=Blues falling down hard
TTITLE1=Travelin' blues
TTITLE2=Half ain't been told
TTITLE3=Bye now baby
TTITLE4=New power chain
TTITLE5=How many more years
TTITLE6=Trouble in mind
TTITLE7=Gambler's Blues
TTITLE8=Drunken man blues
TTITLE9=Mobile exp. blues
TTITLE10=Steamin' upstream
TTITLE11=Rollin' and tumblin'
TTITLE12=Hard liguor killing me
TTITLE13=Red Rosea
EXTD=
EXTT0=Big Bo vocals, guitar Mr. Bas harmonica, \nvocals\n
EXTT1=Mr. Bas vocals, harmonica Big Bo guitar\n
EXTT2=[Otis Spann, arr. Big Bo and Mr. Bass]\nBig Bo vocals, guitar Mr. Bas 
EXTT2=vocals, \npiano Pieter van Bogaert B3 organ\n
EXTT3=Big Bo vocals, guitar Mr. Bas harmonica, \nvocals\n
EXTT4=Big Bo guitar, vocals Mr. Bas harmonica, \nvocals Biek Brans drums\n
EXTT5=Big Bo vocals, guitar Mr. Bas harmonica \nBiek Brans drums\n
EXTT6=[traditional. arr. Big Bo and Mr. Bas]\nBig Bo guitar Mr. Bas harmonic
EXTT6=a, vocals, \nfingers\n
EXTT7=[Lightnin' Hopkins, arr. Big Bo and Mr. \nBas]\nBig Bo guitar Mr. Bas 
EXTT7=harmonica, vocals\n
EXTT8=[Bukka White, arr. Big Bo and Mr. Bas]\nBig Bo vocals, guitar, bassdru
EXTT8=m Mr. Bas \nharmonica\n
EXTT9=Big Bo vocals, guitar, bassdrum Mr. Bas \nharmonica\n
EXTT10=Big Bo guitar Mr. Bas harmonica, vocals \nTony Tang saxophone Biek Br
EXTT10=ans drums\n
EXTT11=[traditional. arr. Big Bo and Mr. Bas]\nBig Bo vocals, guitar Mr. Bas
EXTT11=washboard\n
EXTT12=Big Bo vocals, guitar, both feet Mr. Bas \nharmonica, vocals\n
EXTT13=Big Bo vocals, bassdrum, hammer and \npipe Mr. Bas vocals Bert Landst
EXTT13=ra \nharmonica \n
PLAYORDER=
